<svg xmlns="http://www.w3.org/2000/svg" width="45" height="45" viewBox="0 0 45 45"><defs><clipPath id="9ys3a"><path fill="#fff" d="M0 45V0h45v45zm1-1h43V1H1z"/></clipPath><clipPath id="9ys3b"><path fill="#fff" d="M1 1h43v43H1z"/></clipPath></defs><g><g><g><path fill="#fff" d="M1 1h43v43H1z"/><path fill="none" stroke="#fff" stroke-linecap="round" stroke-linejoin="round" stroke-miterlimit="20" stroke-width="2" d="M1 1v0h43v43H1v0z" clip-path="url(&quot;#9ys3a&quot;)"/><path fill="none" stroke="#fff" stroke-miterlimit="20" stroke-width="2" d="M1 1v0h43v43H1v0z" clip-path="url(&quot;#9ys3b&quot;)"/></g><g><path fill="#fff" d="M24.967 28.803c.119.12.267.18.43.18.164 0 .312-.06.43-.18a.627.627 0 0 0 0-.876l-5.357-5.446 5.358-5.447a.628.628 0 0 0 0-.877.609.609 0 0 0-.861 0l-5.788 5.888a.626.626 0 0 0 0 .875z"/></g><g><path fill="#fff" d="M24.967 28.803c.119.12.267.18.43.18.164 0 .312-.06.43-.18a.627.627 0 0 0 0-.876l-5.357-5.446 5.358-5.447a.628.628 0 0 0 0-.877.609.609 0 0 0-.861 0l-5.788 5.888a.626.626 0 0 0 0 .875z"/></g><g><path fill="#fff" d="M24.967 28.803c.119.12.267.18.43.18.164 0 .312-.06.43-.18a.627.627 0 0 0 0-.876l-5.357-5.446 5.358-5.447a.628.628 0 0 0 0-.877.609.609 0 0 0-.861 0l-5.788 5.888a.626.626 0 0 0 0 .875z"/></g></g></g></svg>